HIERARCHY
ROOT Hips
{
	OFFSET -3.958830 18.904000 13.208200
	CHANNELS 6 Xposition Yposition Zposition Zrotation Yrotation Xrotation 
	JOINT LHipJoint
	{
		OFFSET 0.000000 0.000000 0.000000
		CHANNELS 3 Zrotation Yrotation Xrotation
		JOINT LeftUpLeg
		{
			OFFSET 1.800000 -1.400000 0.085000
			CHANNELS 3 Zrotation Yrotation Xrotation
			JOINT LeftLeg
			{
				OFFSET 2.215000 -6.000000 0.000000
				CHANNELS 3 Zrotation Yrotation Xrotation
				JOINT LeftFoot
				{
					OFFSET 2.500000 -6.900000 0.000000
					CHANNELS 3 Zrotation Yrotation Xrotation
					JOINT LeftToeBase
					{
						OFFSET 0.200000 -0.500000 1.950000
						CHANNELS 3 Zrotation Yrotation Xrotation
						End Site
						{
							OFFSET 0.000000 0.000000 0.000000
						}
					}
				}
			}
		}
	}
	JOINT RHipJoint
	{
		OFFSET 0.000000 0.000000 0.000000
		CHANNELS 3 Zrotation Yrotation Xrotation
		JOINT RightUpLeg
		{
			OFFSET -1.800000 -1.400000 0.085000
			CHANNELS 3 Zrotation Yrotation Xrotation
			JOINT RightLeg
			{
				OFFSET -2.215000 -6.000000 0.000000
				CHANNELS 3 Zrotation Yrotation Xrotation
				JOINT RightFoot
				{
					OFFSET -2.500000 -6.900000 0.000000
					CHANNELS 3 Zrotation Yrotation Xrotation
					JOINT RightToeBase
					{
						OFFSET -0.200000 -0.500000 1.950000
						CHANNELS 3 Zrotation Yrotation Xrotation
						End Site
						{
							OFFSET 0.000000 0.000000 0.000000
						}
					}
				}
			}
		}
	}
	JOINT LowerBack
	{
		OFFSET 0.000000 0.000000 0.000000
		CHANNELS 3 Zrotation Yrotation Xrotation
		JOINT Spine
		{
			OFFSET -0.087000 1.940000 -0.288900
			CHANNELS 3 Zrotation Yrotation Xrotation
			JOINT Spine1
			{
				OFFSET 0.000000 1.950000 0.060000
				CHANNELS 3 Zrotation Yrotation Xrotation
				JOINT Neck
				{
					OFFSET 0.000000 0.000000 0.000000
					CHANNELS 3 Zrotation Yrotation Xrotation
					JOINT Neck1
					{
						OFFSET 0.000000 1.600000 0.340000
						CHANNELS 3 Zrotation Yrotation Xrotation
						JOINT Head
						{
							OFFSET 0.000000 1.667000 -0.240000
							CHANNELS 3 Zrotation Yrotation Xrotation
							End Site
							{
								OFFSET 0.000000 0.000000 0.000000
							}
						}
					}
				}
				JOINT LeftShoulder
				{
					OFFSET 0.000000 0.000000 0.000000
					CHANNELS 3 Zrotation Yrotation Xrotation
					JOINT LeftArm
					{
						OFFSET 2.700000 1.550000 -0.730000
						CHANNELS 3 Zrotation Yrotation Xrotation
						JOINT LeftForeArm
						{
							OFFSET 5.450000 0.000000 0.000000
							CHANNELS 3 Zrotation Yrotation Xrotation
							JOINT LeftHand
							{
								OFFSET 3.450000 0.000000 0.000000
								CHANNELS 3 Zrotation Yrotation Xrotation
								JOINT LeftHandIndex1
								{
									OFFSET 0.750000 0.000000 0.000000
									CHANNELS 3 Zrotation Yrotation Xrotation
									End Site
									{
										OFFSET 0.000000 0.000000 0.000000
									}
								}
							}
						}
					}
				}
				JOINT RightShoulder
				{
					OFFSET 0.000000 0.000000 0.000000
					CHANNELS 3 Zrotation Yrotation Xrotation
					JOINT RightArm
					{
						OFFSET -2.700000 1.550000 -0.730000
						CHANNELS 3 Zrotation Yrotation Xrotation
						JOINT RightForeArm
						{
							OFFSET -5.450000 0.000000 0.000000
							CHANNELS 3 Zrotation Yrotation Xrotation
							JOINT RightHand
							{
								OFFSET -3.450000 0.000000 0.000000
								CHANNELS 3 Zrotation Yrotation Xrotation
								JOINT RightHandIndex1
								{
									OFFSET -0.750000 0.000000 0.000000
									CHANNELS 3 Zrotation Yrotation Xrotation
									End Site
									{
										OFFSET 0.000000 0.000000 0.000000
									}
								}
							}
						}
					}
				}
			}
		}
	}
}
MOTION
Frames: 6
Frame Time: 0.016667
1.709210 16.936010 -5.733650 -1.942217 23.671573 3.611125 -15.106480 12.739768 2.308117 -2.162695 -0.507151 -7.347676 -0.618033 4.856458 18.932186 -0.431967 4.189599 3.337420 0.297800 -0.021870 0.305290 18.509461 -9.998082 4.382648 -5.236171 9.455219 -39.538364 13.313969 -13.400681 45.798101 -0.959343 -7.555809 1.751152 0.062250 0.295640 0.280000 -4.453997 -0.901251 -7.813515 17.044803 -3.247337 11.078682 -5.501778 -1.823548 -2.893035 4.958715 2.823527 -4.920777 4.799804 -3.247700 25.313201 -4.761550 0.830000 -11.134880 -28.670182 -0.020191 -0.887453 -51.989208 -1.842283 -3.690342 -13.101222 -9.567766 -0.734347 -3.981332 2.754351 0.470650 0.230260 -0.034450 0.166540 18.178201 -2.257026 1.414268 54.591044 0.542170 -9.489510 9.918585 27.185442 0.244125 2.126401 -1.317123 -0.238350 0.194960 -0.025450 -0.217220 
1.714670 16.921640 -5.714020 -1.699955 23.833036 3.703297 -15.117588 12.758020 2.317160 -2.344347 -0.371604 -6.870181 -0.392110 4.775499 18.696405 -0.414125 4.176692 3.339370 0.315240 0.004560 0.293130 18.502708 -9.998058 4.360192 -4.808349 9.347200 -39.967726 12.377191 -12.470609 44.501504 -0.866635 -7.170114 1.867263 0.074780 0.299610 0.295040 -4.431085 -0.929247 -7.771110 16.659753 -3.396188 10.811799 -5.290657 -2.079599 -2.692008 4.803431 2.721347 -4.828804 4.633062 -3.067229 24.993860 -4.313720 0.698550 -10.785970 -28.364693 0.162312 -0.892613 -52.290455 -1.901453 -3.668413 -13.032857 -9.499285 -0.745765 -3.985340 2.796515 0.446890 0.237290 -0.039280 0.179260 18.255133 -2.455272 1.245034 54.161101 0.649466 -9.455503 9.941867 27.608313 0.266249 2.123201 -1.352840 -0.216170 0.174030 -0.033110 -0.201460 
1.723300 16.891770 -5.674370 -1.192051 24.197127 3.700625 -15.146498 12.807415 2.332410 -2.570668 -0.058574 -5.673405 -0.075935 4.735132 18.589535 -0.351964 4.204796 3.312376 0.356330 0.071100 0.279340 18.482018 -9.969355 4.341870 -4.118207 9.194381 -40.963908 10.481838 -10.848987 42.419756 -0.719717 -6.503731 2.067902 0.097510 0.286440 0.325060 -4.365501 -1.038442 -7.721836 15.800821 -3.733121 10.593356 -4.949740 -2.583339 -2.261342 4.562755 2.626865 -4.744227 4.436836 -2.760285 24.708309 -3.458740 0.505060 -10.528890 -28.070362 0.116966 -0.777611 -52.478043 -1.996044 -3.654034 -13.017363 -9.410008 -0.744789 -3.976809 2.886392 0.400770 0.238660 -0.033370 0.196430 18.597159 -2.511564 1.032631 53.149244 0.740848 -9.518563 10.079611 28.701294 0.345413 2.121691 -1.418066 -0.156940 0.124890 -0.052920 -0.170250 
1.740320 16.855200 -5.628900 -0.616156 25.011901 3.666467 -15.183613 12.910979 2.414528 -2.693770 0.426883 -3.778823 0.004604 4.612313 16.767738 -0.322091 4.184110 3.322415 0.361800 0.081630 0.258980 18.438112 -9.990215 4.211212 -2.926209 8.608547 -41.008006 7.875821 -8.842082 39.049010 -0.522207 -5.560916 2.375532 0.097850 0.289910 0.345920 -4.279537 -1.235086 -7.667196 15.138364 -4.295269 10.307225 -4.691571 -3.290863 -1.876255 4.380629 2.446879 -4.790795 4.006895 -2.469330 24.913521 -3.113290 0.384640 -10.183240 -27.914924 -0.215432 -0.551425 -52.514411 -2.007351 -3.601854 -13.057668 -9.419818 -0.747393 -3.976536 2.933778 0.382720 0.244250 -0.035810 0.202270 18.932290 -2.292560 1.036836 52.013559 0.565492 -9.763829 9.944633 30.064344 0.430223 2.106560 -1.448120 -0.133230 0.100770 -0.048240 -0.155070 
1.768340 16.814390 -5.571190 -0.259395 25.415872 3.226116 -15.213965 13.028633 2.542325 -2.590584 0.930729 -1.568693 -0.141717 4.545031 14.434580 -0.287919 4.175110 3.322363 0.379900 0.091540 0.279970 18.389407 -10.036649 4.047172 -1.386029 7.974766 -40.204551 5.234819 -6.987456 35.323461 -0.366065 -4.594591 2.695387 0.090900 0.249240 0.351070 -4.199468 -1.436883 -7.664832 14.861400 -4.868829 10.460257 -4.750257 -3.884841 -1.728904 4.430913 2.345058 -4.962895 3.668724 -2.207469 25.829544 -2.809000 0.488660 -10.860780 -27.979196 -0.622644 -0.307048 -52.505126 -1.782382 -3.721000 -12.619533 -9.430350 -0.788333 -3.932343 2.954088 0.410220 0.208520 -0.007940 0.195130 18.960301 -1.992768 1.233147 50.979168 0.225888 -10.100275 10.316511 31.442339 0.661307 2.106834 -1.455771 -0.117530 0.077800 -0.058780 -0.162890 
1.793510 16.768820 -5.508610 0.167942 25.674291 3.118685 -15.248142 13.094485 2.664826 -2.342678 1.331398 0.385934 -0.499940 4.502680 11.784049 -0.280201 4.217387 3.310545 0.382540 0.070340 0.300560 18.351356 -10.031092 3.918694 -0.011922 7.478901 -39.638759 2.912008 -5.517037 31.783499 -0.241126 -3.785094 2.966556 0.080400 0.231980 0.357300 -4.105363 -1.626259 -7.670913 14.434099 -5.399294 10.480941 -4.784335 -4.457772 -1.744504 4.499904 2.317254 -4.996567 3.532349 -1.909124 26.170675 -2.523430 0.648400 -11.624600 -28.135400 -0.688704 -0.192181 -52.081095 -1.378308 -3.876320 -12.603459 -9.787484 -0.814945 -3.914431 2.959267 0.444910 0.188390 0.000640 0.176830 19.062262 -2.094537 1.268630 49.872669 -0.124975 -10.331132 10.802096 32.787994 0.953564 2.091249 -1.452372 -0.124830 0.072000 -0.045520 -0.183730 
